<?xml version="1.0" encoding="UTF-8"?>
<!DOCTYPE svg PUBLIC "-//W3C//DTD SVG 1.1//EN" "http://www.w3.org/Graphics/SVG/1.1/DTD/svg11.dtd">
<svg version="1.2" width="4.2mm" height="4.2mm" viewBox="0 0 420 420" preserveAspectRatio="xMidYMid" fill-rule="evenodd" stroke-width="28.222" stroke-linejoin="round" xmlns="http://www.w3.org/2000/svg" xmlns:ooo="http://xml.openoffice.org/svg/export" xmlns:xlink="http://www.w3.org/1999/xlink" xmlns:presentation="http://sun.com/xmlns/staroffice/presentation" xmlns:smil="http://www.w3.org/2001/SMIL20/" xmlns:anim="urn:oasis:names:tc:opendocument:xmlns:animation:1.0" xmlns:svg="urn:oasis:names:tc:opendocument:xmlns:svg-compatible:1.0" xml:space="preserve">
 <defs class="ClipPathGroup">
  <clipPath id="presentation_clip_path" clipPathUnits="userSpaceOnUse">
   <rect x="0" y="0" width="420" height="420"/>
  </clipPath>
  <clipPath id="presentation_clip_path_shrink" clipPathUnits="userSpaceOnUse">
   <rect x="0" y="0" width="420" height="420"/>
  </clipPath>
 </defs>
 <defs class="TextShapeIndex">
  <g ooo:slide="id1" ooo:id-list="id3"/>
 </defs>
 <defs class="EmbeddedBulletChars">
  <g id="bullet-char-template-57356" transform="scale(0.00048828125,-0.00048828125)">
   <path d="M 580,1141 L 1163,571 580,0 -4,571 580,1141 Z"/>
  </g>
  <g id="bullet-char-template-57354" transform="scale(0.00048828125,-0.00048828125)">
   <path d="M 8,1128 L 1137,1128 1137,0 8,0 8,1128 Z"/>
  </g>
  <g id="bullet-char-template-10146" transform="scale(0.00048828125,-0.00048828125)">
   <path d="M 174,0 L 602,739 174,1481 1456,739 174,0 Z M 1358,739 L 309,1346 659,739 1358,739 Z"/>
  </g>
  <g id="bullet-char-template-10132" transform="scale(0.00048828125,-0.00048828125)">
   <path d="M 2015,739 L 1276,0 717,0 1260,543 174,543 174,936 1260,936 717,1481 1274,1481 2015,739 Z"/>
  </g>
  <g id="bullet-char-template-10007" transform="scale(0.00048828125,-0.00048828125)">
   <path d="M 0,-2 C -7,14 -16,27 -25,37 L 356,567 C 262,823 215,952 215,954 215,979 228,992 255,992 264,992 276,990 289,987 310,991 331,999 354,1012 L 381,999 492,748 772,1049 836,1024 860,1049 C 881,1039 901,1025 922,1006 886,937 835,863 770,784 769,783 710,716 594,584 L 774,223 C 774,196 753,168 711,139 L 727,119 C 717,90 699,76 672,76 641,76 570,178 457,381 L 164,-76 C 142,-110 111,-127 72,-127 30,-127 9,-110 8,-76 1,-67 -2,-52 -2,-32 -2,-23 -1,-13 0,-2 Z"/>
  </g>
  <g id="bullet-char-template-10004" transform="scale(0.00048828125,-0.00048828125)">
   <path d="M 285,-33 C 182,-33 111,30 74,156 52,228 41,333 41,471 41,549 55,616 82,672 116,743 169,778 240,778 293,778 328,747 346,684 L 369,508 C 377,444 397,411 428,410 L 1163,1116 C 1174,1127 1196,1133 1229,1133 1271,1133 1292,1118 1292,1087 L 1292,965 C 1292,929 1282,901 1262,881 L 442,47 C 390,-6 338,-33 285,-33 Z"/>
  </g>
  <g id="bullet-char-template-9679" transform="scale(0.00048828125,-0.00048828125)">
   <path d="M 813,0 C 632,0 489,54 383,161 276,268 223,411 223,592 223,773 276,916 383,1023 489,1130 632,1184 813,1184 992,1184 1136,1130 1245,1023 1353,916 1407,772 1407,592 1407,412 1353,268 1245,161 1136,54 992,0 813,0 Z"/>
  </g>
  <g id="bullet-char-template-8226" transform="scale(0.00048828125,-0.00048828125)">
   <path d="M 346,457 C 273,457 209,483 155,535 101,586 74,649 74,723 74,796 101,859 155,911 209,963 273,989 346,989 419,989 480,963 531,910 582,859 608,796 608,723 608,648 583,586 532,535 482,483 420,457 346,457 Z"/>
  </g>
  <g id="bullet-char-template-8211" transform="scale(0.00048828125,-0.00048828125)">
   <path d="M -4,459 L 1135,459 1135,606 -4,606 -4,459 Z"/>
  </g>
  <g id="bullet-char-template-61548" transform="scale(0.00048828125,-0.00048828125)">
   <path d="M 173,740 C 173,903 231,1043 346,1159 462,1274 601,1332 765,1332 928,1332 1067,1274 1183,1159 1299,1043 1357,903 1357,740 1357,577 1299,437 1183,322 1067,206 928,148 765,148 601,148 462,206 346,322 231,437 173,577 173,740 Z"/>
  </g>
 </defs>
 <g>
  <g id="id2" class="Master_Slide">
   <g id="bg-id2" class="Background"/>
   <g id="bo-id2" class="BackgroundObjects"/>
  </g>
 </g>
 <g class="SlideGroup">
  <g>
   <g id="container-id1">
    <g id="id1" class="Slide" clip-path="url(#presentation_clip_path)">
     <g class="Page">
      <g class="com.sun.star.drawing.ClosedBezierShape">
       <g id="id3">
        <rect class="BoundingBox" stroke="none" fill="none" x="-1" y="-1" width="423" height="423"/>
        <path fill="rgb(0,0,0)" stroke="none" d="M 39,26 C 37,26 34,25 32,27 30,28 28,30 27,32 25,34 26,37 26,39 L 26,144 C 26,147 25,149 24,151 23,153 21,155 19,156 17,157 14,158 12,158 9,158 8,157 6,156 4,155 2,153 1,151 0,149 -1,147 -1,144 L -1,39 C -1,32 1,25 5,19 8,13 13,8 19,5 25,1 32,-1 39,-1 L 144,-1 C 147,-1 149,0 151,1 153,2 155,4 156,6 157,8 158,9 158,12 158,14 157,17 156,19 155,21 153,23 151,24 149,25 147,26 144,26 L 39,26 Z M 264,6 C 265,4 267,2 269,1 271,0 273,-1 276,-1 L 381,-1 C 388,-1 395,1 401,5 407,8 412,13 415,19 419,25 421,32 421,39 L 421,144 C 421,147 420,149 419,151 418,153 416,155 414,156 412,157 411,158 408,158 406,158 403,157 401,156 399,155 397,153 396,151 395,149 394,147 394,144 L 394,39 C 394,37 395,34 393,32 392,30 390,29 388,27 386,26 383,26 381,26 L 276,26 C 273,26 271,25 269,24 267,23 265,21 264,19 263,17 262,14 262,12 262,9 263,8 264,6 Z M 19,264 C 21,265 23,267 24,269 25,271 26,273 26,276 L 26,381 C 26,383 25,386 27,388 28,390 30,392 32,393 34,395 37,394 39,394 L 144,394 C 147,394 149,395 151,396 153,397 155,399 156,401 157,403 158,406 158,408 158,411 157,412 156,414 155,416 153,418 151,419 149,420 147,421 144,421 L 39,421 C 32,421 25,419 19,415 13,412 8,407 5,401 1,395 -1,388 -1,381 L -1,276 C -1,273 0,271 1,269 2,267 4,265 6,264 8,263 9,262 12,262 14,262 17,263 19,264 Z M 414,264 C 416,265 418,267 419,269 420,271 421,273 421,276 L 421,381 C 421,388 419,395 415,401 412,407 407,412 401,415 395,419 388,421 381,421 L 276,421 C 273,421 271,420 269,419 267,418 265,416 264,414 263,412 262,411 262,408 262,406 263,403 264,401 265,399 267,397 269,396 271,395 273,394 276,394 L 381,394 C 383,394 386,395 388,393 390,392 392,390 393,388 395,386 394,383 394,381 L 394,276 C 394,273 395,271 396,269 397,267 399,265 401,264 403,263 406,262 408,262 411,262 412,263 414,264 Z M 191,147 C 187,152 183,157 178,161 171,164 165,166 159,166 152,166 145,164 140,161 134,157 129,153 126,147 123,142 121,135 121,128 121,120 123,115 126,110 129,104 134,100 140,96 145,93 152,91 159,91 165,91 171,93 178,96 183,100 187,104 191,110 194,115 196,120 196,128 196,135 194,141 191,147 Z M 258,189 L 329,247 329,315 C 329,317 329,319 327,322 326,324 324,326 322,326 319,328 317,329 315,329 L 106,329 C 103,329 101,328 98,326 96,326 95,324 94,322 92,319 91,317 91,315 L 91,284 145,219 C 146,218 146,218 147,218 148,218 150,217 151,217 153,217 153,218 154,218 L 155,218 194,260 249,190 C 250,190 251,190 251,189 252,188 253,188 254,188 255,188 257,188 258,189 Z"/>
       </g>
      </g>
     </g>
    </g>
   </g>
  </g>
 </g>
</svg>